<svg width="18" height="18" viewBox="0 0 18 18" fill="none" xmlns="http://www.w3.org/2000/svg">
  <path d="M17.64 9.20455C17.64 8.56636 17.5827 7.95273 17.4764 7.36364H9V10.845H13.8436C13.635 11.97 12.9982 12.9232 12.045 13.5614V15.8209H14.9564C16.66 14.2527 17.64 11.9455 17.64 9.20455Z" fill="#4285F4"/>
  <path d="M9 18C11.43 18 13.4673 17.1941 14.9564 15.8209L12.045 13.5614C11.2391 14.1014 10.2082 14.4205 9 14.4205C6.65591 14.4205 4.67182 12.8373 3.96409 10.71H0.954544V13.0432C2.43545 15.9845 5.47818 18 9 18Z" fill="#34A853"/>
  <path d="M3.96409 10.71C3.78409 10.17 3.68182 9.59318 3.68182 9C3.68182 8.40682 3.78409 7.83 3.96409 7.29V4.95682H0.954544C0.347727 6.16636 0 7.53818 0 9C0 10.4618 0.347727 11.8336 0.954544 13.0432L3.96409 10.71Z" fill="#FBBC05"/>
  <path d="M9 3.57955C10.3186 3.57955 11.5036 4.03364 12.435 4.92545L15.0218 2.33864C13.4632 0.876818 11.4259 0 9 0C5.47818 0 2.43545 2.01545 0.954544 4.95682L3.96409 7.29C4.67182 5.16273 6.65591 3.57955 9 3.57955Z" fill="#EA4335"/>
</svg>
