<svg width="26" height="26" viewBox="0 0 26 26" fill="none" xmlns="http://www.w3.org/2000/svg">
<path d="M13 6.55C16.79 6.55 20.17 8.68 21.82 12.05C21.23 13.27 20.4 14.32 19.41 15.17L20.82 16.58C22.21 15.35 23.31 13.81 24 12.05C22.27 7.66 18 4.55 13 4.55C11.73 4.55 10.51 4.75 9.36 5.12L11.01 6.77C11.66 6.64 12.32 6.55 13 6.55ZM11.93 7.69L14 9.76C14.57 10.01 15.03 10.47 15.28 11.04L17.35 13.11C17.43 12.77 17.49 12.41 17.49 12.04C17.5 9.56 15.48 7.55 13 7.55C12.63 7.55 12.28 7.6 11.93 7.69ZM3.01 4.42L5.69 7.1C4.06 8.38 2.77 10.08 2 12.05C3.73 16.44 8 19.55 13 19.55C14.52 19.55 15.98 19.26 17.32 18.73L20.74 22.15L22.15 20.74L4.42 3L3.01 4.42ZM10.51 11.92L13.12 14.53C13.08 14.54 13.04 14.55 13 14.55C11.62 14.55 10.5 13.43 10.5 12.05C10.5 12 10.51 11.97 10.51 11.92ZM7.11 8.52L8.86 10.27C8.63 10.82 8.5 11.42 8.5 12.05C8.5 14.53 10.52 16.55 13 16.55C13.63 16.55 14.23 16.42 14.77 16.19L15.75 17.17C14.87 17.41 13.95 17.55 13 17.55C9.21 17.55 5.83 15.42 4.18 12.05C4.88 10.62 5.9 9.44 7.11 8.52Z" fill="#6B6B6B"/>
</svg>
