<svg width="26" height="26" viewBox="0 0 26 26" fill="none" xmlns="http://www.w3.org/2000/svg">
<path d="M3.25 13C9.1 4.33333 16.9 4.33333 22.75 13C16.9 21.6667 9.1 21.6667 3.25 13Z" stroke="#6B6B6B" stroke-width="2" stroke-linejoin="round"/>
<path d="M16.25 13C16.25 13.862 15.9076 14.6886 15.2981 15.2981C14.6886 15.9076 13.862 16.25 13 16.25C12.138 16.25 11.3114 15.9076 10.7019 15.2981C10.0924 14.6886 9.75 13.862 9.75 13C9.75 12.138 10.0924 11.3114 10.7019 10.7019C11.3114 10.0924 12.138 9.75 13 9.75C13.862 9.75 14.6886 10.0924 15.2981 10.7019C15.9076 11.3114 16.25 12.138 16.25 13Z" stroke="#6B6B6B" stroke-width="2" stroke-linejoin="round"/>
</svg>
