<svg width="20" height="20" viewBox="0 0 20 20" fill="none" xmlns="http://www.w3.org/2000/svg">
  <path
    d="M10 4.1C8.45 3.05 6.58 2.55 4.75 2.55C3.92 2.55 3.25 3.22 3.25 4.05V14.9C3.25 15.75 4.04 16.35 4.84 16.1C6.69 15.53 8.51 15.54 10 16.35C11.49 15.54 13.31 15.53 15.16 16.1C15.96 16.35 16.75 15.75 16.75 14.9V4.05C16.75 3.22 16.08 2.55 15.25 2.55C13.42 2.55 11.55 3.05 10 4.1Z"
    stroke="white"
    stroke-opacity="0.92"
    stroke-width="2.05"
    stroke-linecap="round"
    stroke-linejoin="round"
  />
  <path
    d="M10 4.1V16.35"
    stroke="white"
    stroke-opacity="0.92"
    stroke-width="2.05"
    stroke-linecap="round"
    stroke-linejoin="round"
  />
  <path
    d="M4.6 5.7C6.26 5.58 7.93 5.95 9.22 6.74"
    stroke="white"
    stroke-opacity="0.78"
    stroke-width="1.65"
    stroke-linecap="round"
  />
  <path
    d="M15.4 5.7C13.74 5.58 12.07 5.95 10.78 6.74"
    stroke="white"
    stroke-opacity="0.78"
    stroke-width="1.65"
    stroke-linecap="round"
  />
</svg>
